<mxfile host="65bd71144e">
    <diagram id="Zphku5AM_jrOAezdSDCR" name="第 1 页">
        <mxGraphModel dx="1687" dy="1404" grid="1" gridSize="10" guides="1" tooltips="1" connect="1" arrows="1" fold="1" page="1" pageScale="1" pageWidth="827" pageHeight="1169" math="0" shadow="0">
            <root>
                <mxCell id="0"/>
                <mxCell id="1" parent="0"/>
                <mxCell id="23" value="" style="edgeStyle=none;html=1;startArrow=classic;startFill=1;endArrow=none;endFill=0;" edge="1" parent="1" source="24" target="25">
                    <mxGeometry relative="1" as="geometry"/>
                </mxCell>
                <mxCell id="24" value="c" style="rounded=1;whiteSpace=wrap;html=1;fillColor=#fff2cc;strokeColor=#d6b656;fontSize=18;fontStyle=1" vertex="1" parent="1">
                    <mxGeometry x="230" y="350" width="100" height="50" as="geometry"/>
                </mxCell>
                <mxCell id="25" value="a b d" style="rounded=1;whiteSpace=wrap;html=1;fillColor=#fff2cc;strokeColor=#d6b656;fontSize=18;fontStyle=1" vertex="1" parent="1">
                    <mxGeometry x="410" y="350" width="120" height="50" as="geometry"/>
                </mxCell>
                <mxCell id="26" value="new_commit&lt;br style=&quot;font-size: 19px;&quot;&gt;" style="text;html=1;align=center;verticalAlign=middle;resizable=0;points=[];autosize=1;strokeColor=none;fillColor=none;fontSize=19;fontStyle=1" vertex="1" parent="1">
                    <mxGeometry x="407" y="425" width="130" height="30" as="geometry"/>
                </mxCell>
            </root>
        </mxGraphModel>
    </diagram>
</mxfile>